<svg xmlns="http://www.w3.org/2000/svg" xmlns:xlink="http://www.w3.org/1999/xlink" version="1.1" width="24" height="24" viewBox="0 0 24 24">
	<defs>
		<clipPath id="master_svg0_88_65235">
			<rect x="0" y="0" width="24" height="24" rx="0" />
		</clipPath>
	</defs>
	<g style="mix-blend-mode:passthrough">
		<g style="mix-blend-mode:passthrough" clip-path="url(#master_svg0_88_65235)">
			<g style="mix-blend-mode:passthrough">
				<path d="M12,24Q12.22094,24,12.44161,23.9855Q12.66228,23.9711,12.88215,23.9422Q13.102,23.9133,13.3206,23.8701Q13.5391,23.8269,13.7558,23.7694Q13.9725,23.712,14.1868,23.6404Q14.4011,23.5688,14.6126,23.4833Q14.824,23.3978,15.032,23.2985Q15.24,23.1993,15.4441,23.0866Q15.6483,22.9738,15.848,22.8479Q16.0477,22.7219,16.2426,22.5831Q16.4374,22.4442,16.6269,22.2927Q16.8164,22.1413,17.0001,21.9776Q17.183799999999998,21.814,17.3613,21.6385Q17.538800000000002,21.463,17.7095,21.2761Q17.8803,21.0892,18.044,20.8914Q18.207700000000003,20.6936,18.364,20.4853Q18.520200000000003,20.277,18.668599999999998,20.0587Q18.8169,19.8404,18.9571,19.6127Q19.0973,19.385,19.2289,19.1484Q19.3605,18.9118,19.4832,18.6668Q19.606,18.4219,19.7196,18.1692Q19.8331,17.9166,19.9373,17.6568Q20.0414,17.397,20.1359,17.1307Q20.2304,16.8644,20.3149,16.5922Q20.3995,16.32,20.4739,16.0427Q20.5483,15.7653,20.6125,15.4834Q20.6766,15.2015,20.7303,14.9158Q20.784,14.63,20.8271,14.3411Q20.8702,14.0522,20.9026,13.7608Q20.935,13.4694,20.9567,13.1762Q20.9783,12.883,20.9892,12.5888Q21,12.2946,21,12Q21,11.7054,20.9892,11.4112Q20.9783,11.117,20.9567,10.8238Q20.935,10.5306,20.9026,10.2392Q20.8702,9.94784,20.8271,9.65892Q20.784,9.36999,20.7303,9.08424Q20.6766,8.79848,20.6125,8.51658Q20.5483,8.23468,20.4739,7.95732Q20.3995,7.67996,20.3149,7.4078Q20.2304,7.13564,20.1359,6.86934Q20.0414,6.60304,19.9373,6.34324Q19.8331,6.08344,19.7196,5.83077Q19.606,5.57809,19.4832,5.33316Q19.3605,5.08822,19.2289,4.85161Q19.0973,4.615,18.9571,4.38728Q18.8169,4.15956,18.668599999999998,3.94129Q18.520200000000003,3.72302,18.364,3.51472Q18.207700000000003,3.30642,18.044,3.10859Q17.8803,2.91076,17.7095,2.72387Q17.538800000000002,2.53699,17.3613,2.36151Q17.183799999999998,2.18603,17.0001,2.02236Q16.8164,1.8587,16.6269,1.70726Q16.4374,1.55581,16.2426,1.41694Q16.0477,1.27808,15.848,1.15213Q15.6483,1.02618,15.4441,0.913446Q15.24,0.800713,15.032,0.701471Q14.824,0.602229,14.6126,0.516716Q14.4011,0.431203,14.1868,0.359625Q13.9725,0.288047,13.7558,0.230577Q13.5391,0.173106,13.3206,0.129882Q13.102,0.0866575,12.88215,0.0577833Q12.66228,0.028909,12.44161,0.0144545Q12.22094,0,12,0Q11.77906,0,11.55839,0.0144545Q11.33772,0.028909,11.11785,0.0577833Q10.89797,0.0866575,10.67943,0.129882Q10.46088,0.173106,10.24419,0.230577Q10.02749,0.288047,9.81318,0.359625Q9.59886,0.431203,9.38744,0.516716Q9.17601,0.602229,8.96799,0.701471Q8.75997,0.800713,8.55585,0.913446Q8.35173,1.02618,8.152000000000001,1.15213Q7.95228,1.27808,7.75743,1.41694Q7.56258,1.55581,7.37308,1.70726Q7.18357,1.8587,6.99987,2.02236Q6.81616,2.18603,6.63871,2.36151Q6.46125,2.53699,6.2904599999999995,2.72387Q6.11967,2.91076,5.955970000000001,3.10859Q5.79227,3.30642,5.6360399999999995,3.51472Q5.4798100000000005,3.72302,5.331440000000001,3.94129Q5.18307,4.15956,5.04291,4.38728Q4.90274,4.615,4.77113,4.85161Q4.63952,5.08822,4.51677,5.33316Q4.39403,5.57809,4.2804400000000005,5.83077Q4.16686,6.08344,4.06271,6.34324Q3.958559,6.60304,3.864096,6.86934Q3.769633,7.13564,3.685084,7.4078Q3.600535,7.67996,3.526103,7.95732Q3.451672,8.23468,3.387537,8.51658Q3.323402,8.79848,3.269719,9.08424Q3.216035,9.36999,3.172932,9.65892Q3.12983,9.94784,3.0974114,10.2392Q3.0649931,10.5306,3.0433375,10.8238Q3.0216818,11.117,3.0108409,11.4112Q3,11.7054,3,12Q3,12.2946,3.0108409,12.5888Q3.0216818,12.883,3.0433375,13.1762Q3.0649931,13.4694,3.0974114,13.7608Q3.12983,14.0522,3.172932,14.3411Q3.216035,14.63,3.269719,14.9158Q3.323402,15.2015,3.387537,15.4834Q3.451672,15.7653,3.526103,16.0427Q3.600535,16.32,3.685084,16.5922Q3.769633,16.8644,3.864096,17.1307Q3.958559,17.397,4.06271,17.6568Q4.16686,17.9166,4.2804400000000005,18.1692Q4.39403,18.4219,4.51677,18.6668Q4.63952,18.9118,4.77113,19.1484Q4.90274,19.385,5.04291,19.6127Q5.18307,19.8404,5.331440000000001,20.0587Q5.4798100000000005,20.277,5.6360399999999995,20.4853Q5.79227,20.6936,5.955970000000001,20.8914Q6.11967,21.0892,6.2904599999999995,21.2761Q6.46125,21.463,6.63871,21.6385Q6.81616,21.814,6.99987,21.9776Q7.18357,22.1413,7.37308,22.2927Q7.56258,22.4442,7.75743,22.5831Q7.95228,22.7219,8.152000000000001,22.8479Q8.35173,22.9738,8.55585,23.0866Q8.75997,23.1993,8.96799,23.2985Q9.17601,23.3978,9.38744,23.4833Q9.59886,23.5688,9.81318,23.6404Q10.02749,23.712,10.24419,23.7694Q10.46088,23.8269,10.67943,23.8701Q10.89797,23.9133,11.11785,23.9422Q11.33772,23.9711,11.55839,23.9855Q11.77906,24,12,24ZM19.2654,10.8657Q19.2654,11.1018,19.2567,11.3376Q19.248,11.5733,19.2305,11.8083Q19.2131,12.0432,19.187,12.2767Q19.1609,12.5102,19.1262,12.7418Q19.0914,12.9733,19.0482,13.2023Q19.005,13.4313,18.9533,13.6572Q18.901699999999998,13.8831,18.8417,14.1054Q18.7818,14.3277,18.7137,14.5458Q18.6456,14.7639,18.569499999999998,14.9773Q18.493499999999997,15.1907,18.409599999999998,15.3989Q18.325699999999998,15.6071,18.234299999999998,15.8095Q18.1428,16.012,18.0439,16.2083Q17.9451,16.4046,17.839100000000002,16.5942Q17.7331,16.7838,17.6202,16.9663Q17.5073,17.1488,17.387900000000002,17.3237Q17.2684,17.4986,17.1426,17.6656Q17.0167,17.8325,16.884900000000002,17.991Q16.7531,18.1495,16.6155,18.2993Q16.478,18.4491,16.3351,18.5897Q16.1922,18.7303,16.0442,18.8615Q15.8963,18.9926,15.7437,19.114Q15.5911,19.2354,15.4341,19.3466Q15.2772,19.4579,15.1164,19.5589Q14.9555,19.6598,14.7912,19.7501Q14.6268,19.8405,14.4592,19.92Q14.2917,19.9995,14.1214,20.0681Q13.9512,20.1366,13.7786,20.1939Q13.606,20.2513,13.4315,20.2974Q13.257,20.3434,13.081,20.3781Q12.90497,20.4127,12.72791,20.4358Q12.55083,20.459,12.37312,20.4706Q12.19541,20.4821,12.01748,20.4821Q11.83955,20.4821,11.66184,20.4706Q11.48413,20.459,11.30706,20.4358Q11.12999,20.4127,10.953990000000001,20.3781Q10.77798,20.3434,10.603480000000001,20.2974Q10.42897,20.2513,10.25637,20.1939Q10.08378,20.1366,9.913509999999999,20.0681Q9.74325,19.9995,9.57572,19.92Q9.408190000000001,19.8405,9.24381,19.7501Q9.07943,19.6598,8.91858,19.5589Q8.75774,19.4579,8.600819999999999,19.3466Q8.4439,19.2354,8.29129,19.114Q8.13868,18.9926,7.99074,18.8615Q7.84279,18.7303,7.69988,18.5897Q7.55697,18.4491,7.41943,18.2993Q7.28189,18.1495,7.15005,17.991Q7.01822,17.8325,6.89241,17.6655Q6.76659,17.4986,6.6471,17.3237Q6.527620000000001,17.1488,6.41474,16.9663Q6.30186,16.7838,6.19587,16.5942Q6.08988,16.4046,5.99103,16.2083Q5.89218,16.012,5.8007100000000005,15.8095Q5.70923,15.6071,5.625360000000001,15.3989Q5.54149,15.1907,5.46541,14.9773Q5.38934,14.7639,5.32125,14.5458Q5.253159999999999,14.3277,5.19322,14.1054Q5.1332699999999996,13.8831,5.0816300000000005,13.6572Q5.02998,13.4313,4.98674,13.2023Q4.94351,12.9733,4.9088,12.7418Q4.87409,12.5102,4.84798,12.2767Q4.8218700000000005,12.0432,4.80443,11.8083Q4.78699,11.5733,4.7782599999999995,11.3376Q4.76953,11.1018,4.76953,10.8657Q4.76953,10.6296,4.7782599999999995,10.3938Q4.78699,10.1581,4.80443,9.92313Q4.8218700000000005,9.68819,4.84798,9.45468Q4.87409,9.22116,4.9088,8.98963Q4.94351,8.7581,4.98674,8.5291Q5.02998,8.30011,5.0816300000000005,8.0742Q5.1332699999999996,7.84829,5.19322,7.62602Q5.253159999999999,7.40375,5.32125,7.18565Q5.38934,6.96755,5.46541,6.75415Q5.54149,6.54074,5.625360000000001,6.33255Q5.70923,6.12435,5.8007100000000005,5.92187Q5.89218,5.71938,5.99103,5.5231Q6.08988,5.32681,6.19587,5.1372Q6.30186,4.94759,6.41474,4.7651Q6.527620000000001,4.58262,6.6471,4.4077Q6.76659,4.23278,6.89241,4.06586Q7.01822,3.89893,7.15005,3.74039Q7.28189,3.58186,7.41943,3.4321Q7.55697,3.28234,7.69988,3.14171Q7.84279,3.00108,7.99074,2.86993Q8.13868,2.73878,8.29129,2.61741Q8.4439,2.49605,8.600819999999999,2.38476Q8.75774,2.27348,8.91858,2.17255Q9.07943,2.07162,9.24381,1.98127Q9.408190000000001,1.89093,9.57572,1.81141Q9.74325,1.73188,9.913509999999999,1.66335Q10.08378,1.59482,10.25637,1.53746Q10.42897,1.4801,10.603480000000001,1.43404Q10.77798,1.38799,10.953990000000001,1.35335Q11.12999,1.31871,11.30706,1.29557Q11.48413,1.27243,11.66184,1.26085Q11.83955,1.24927,12.01748,1.24927Q12.19541,1.24927,12.37312,1.26085Q12.55083,1.27243,12.72791,1.29557Q12.90497,1.31871,13.081,1.35335Q13.257,1.38799,13.4315,1.43404Q13.606,1.4801,13.7786,1.53746Q13.9512,1.59482,14.1214,1.66335Q14.2917,1.73188,14.4592,1.81141Q14.6268,1.89093,14.7912,1.98127Q14.9555,2.07162,15.1164,2.17255Q15.2772,2.27348,15.4341,2.38476Q15.5911,2.49605,15.7437,2.61741Q15.8963,2.73878,16.0442,2.86993Q16.1922,3.00108,16.3351,3.14171Q16.478,3.28234,16.6155,3.4321Q16.7531,3.58186,16.884900000000002,3.74039Q17.0167,3.89893,17.1426,4.06586Q17.2684,4.23278,17.387900000000002,4.4077Q17.5073,4.58262,17.6202,4.7651Q17.7331,4.94759,17.839100000000002,5.1372Q17.9451,5.32681,18.0439,5.5231Q18.1428,5.71938,18.234299999999998,5.92187Q18.325699999999998,6.12435,18.409599999999998,6.33255Q18.493499999999997,6.54074,18.569499999999998,6.75415Q18.6456,6.96755,18.7137,7.18565Q18.7818,7.40375,18.8417,7.62602Q18.901699999999998,7.84829,18.9533,8.0742Q19.005,8.30011,19.0482,8.5291Q19.0914,8.7581,19.1262,8.98963Q19.1609,9.22116,19.187,9.45468Q19.2131,9.68819,19.2305,9.92313Q19.248,10.1581,19.2567,10.3938Q19.2654,10.6296,19.2654,10.8657ZM17.9378,9.69859Q17.9378,9.89391,17.9307,10.089Q17.9236,10.2841,17.9093,10.4784Q17.8951,10.6728,17.8737,10.866Q17.8524,11.0592,17.8241,11.2508Q17.7957,11.4423,17.7604,11.6318Q17.725099999999998,11.8212,17.6829,12.0081Q17.640700000000002,12.195,17.5918,12.3789Q17.5428,12.5628,17.4872,12.7433Q17.4316,12.9237,17.3694,13.1003Q17.307299999999998,13.2768,17.238799999999998,13.4491Q17.170299999999997,13.6214,17.095599999999997,13.7889Q17.0208,13.9564,16.9401,14.1188Q16.8594,14.2812,16.7728,14.4381Q16.6862,14.595,16.594,14.7459Q16.5018,14.8969,16.4042,15.0416Q16.3066,15.1863,16.2039,15.3244Q16.101100000000002,15.4626,15.9934,15.5937Q15.8857,15.7249,15.7734,15.8488Q15.6611,15.9727,15.5443,16.089Q15.4276,16.2054,15.3068,16.3139Q15.1859,16.4224,15.0613,16.5228Q14.9366,16.6232,14.8084,16.7153Q14.6803,16.8074,14.5489,16.8909Q14.4175,16.9744,14.2833,17.0491Q14.149,17.1239,14.0122,17.1897Q13.8753,17.2555,13.7362,17.3122Q13.5972,17.3689,13.4562,17.4163Q13.3152,17.4638,13.1727,17.5019Q13.0301,17.54,12.88639,17.5686Q12.74264,17.5973,12.59801,17.6164Q12.45338,17.6356,12.30822,17.6452Q12.16307,17.6548,12.01774,17.6548Q11.87241,17.6548,11.72725,17.6452Q11.5821,17.6356,11.43747,17.6164Q11.29284,17.5973,11.14908,17.5686Q11.00532,17.54,10.86279,17.5019Q10.72025,17.4638,10.579270000000001,17.4163Q10.4383,17.3689,10.29923,17.3122Q10.160160000000001,17.2555,10.02332,17.1897Q9.88649,17.1239,9.752220000000001,17.0491Q9.61795,16.9744,9.48658,16.8909Q9.3552,16.8074,9.22703,16.7153Q9.09886,16.6232,8.97421,16.5228Q8.84955,16.4224,8.72871,16.3139Q8.60788,16.2054,8.491150000000001,16.089Q8.37442,15.9727,8.262080000000001,15.8488Q8.149740000000001,15.7249,8.04205,15.5937Q7.93437,15.4626,7.83161,15.3244Q7.72884,15.1863,7.63125,15.0416Q7.53365,14.8969,7.44145,14.7459Q7.34926,14.595,7.26268,14.4381Q7.17611,14.2812,7.09537,14.1188Q7.01463,13.9564,6.939909999999999,13.7889Q6.8652,13.6214,6.79669,13.4491Q6.72818,13.2768,6.66605,13.1003Q6.60391,12.9237,6.54829,12.7433Q6.49268,12.5628,6.44372,12.3789Q6.39476,12.195,6.35257,12.0081Q6.31039,11.8212,6.2750699999999995,11.6318Q6.23976,11.4423,6.21141,11.2508Q6.183059999999999,11.0592,6.16173,10.866Q6.14041,10.6728,6.1261600000000005,10.4784Q6.11192,10.2841,6.1047899999999995,10.089Q6.097659999999999,9.89391,6.097659999999999,9.69859Q6.097659999999999,9.50328,6.1047899999999995,9.3082Q6.11192,9.11313,6.1261600000000005,8.91875Q6.14041,8.72438,6.16173,8.53118Q6.183059999999999,8.33798,6.21141,8.14642Q6.23976,7.95486,6.2750699999999995,7.7654Q6.31039,7.57594,6.35257,7.38904Q6.39476,7.20214,6.44372,7.01824Q6.49268,6.83435,6.54829,6.6539Q6.60391,6.47346,6.66605,6.2969Q6.72818,6.12034,6.79669,5.94808Q6.8652,5.77583,6.939909999999999,5.60831Q7.01463,5.44078,7.09537,5.27839Q7.17611,5.11599,7.26268,4.95911Q7.34926,4.80224,7.44145,4.65126Q7.53365,4.50028,7.63125,4.35556Q7.72884,4.21084,7.83161,4.07274Q7.93437,3.93463,8.04205,3.80347Q8.14973,3.6723,8.262080000000001,3.5484Q8.37442,3.42449,8.491150000000001,3.30814Q8.60788,3.1918,8.72871,3.08329Q8.84955,2.97478,8.97421,2.87437Q9.09886,2.77395,9.22703,2.68189Q9.3552,2.58982,9.48658,2.50631Q9.61795,2.4228,9.752220000000001,2.34806Q9.88649,2.27332,10.02332,2.20752Q10.160160000000001,2.14172,10.29923,2.08502Q10.4383,2.02833,10.579270000000001,1.98087Q10.72025,1.93341,10.86279,1.89531Q11.00532,1.8572,11.14908,1.82854Q11.29284,1.79989,11.43747,1.78074Q11.5821,1.7616,11.72725,1.75202Q11.87241,1.74243,12.01774,1.74243Q12.16307,1.74243,12.30822,1.75202Q12.45338,1.7616,12.59801,1.78074Q12.74264,1.79989,12.88639,1.82855Q13.0301,1.8572,13.1727,1.89531Q13.3152,1.93341,13.4562,1.98087Q13.5972,2.02833,13.7362,2.08502Q13.8753,2.14172,14.0122,2.20752Q14.149,2.27332,14.2833,2.34806Q14.4175,2.4228,14.5489,2.50631Q14.6803,2.58982,14.8084,2.68189Q14.9366,2.77395,15.0613,2.87437Q15.1859,2.97478,15.3068,3.08329Q15.4276,3.1918,15.5443,3.30814Q15.6611,3.42449,15.7734,3.5484Q15.8857,3.6723,15.9934,3.80347Q16.101100000000002,3.93463,16.2039,4.07274Q16.3066,4.21084,16.4042,4.35556Q16.5018,4.50028,16.594,4.65126Q16.6862,4.80224,16.7728,4.95911Q16.8594,5.11599,16.9401,5.27839Q17.0208,5.44078,17.095599999999997,5.60831Q17.170299999999997,5.77583,17.238799999999998,5.94808Q17.307299999999998,6.12034,17.3694,6.2969Q17.4316,6.47346,17.4872,6.6539Q17.5428,6.83435,17.5918,7.01824Q17.640700000000002,7.20214,17.6829,7.38904Q17.725099999999998,7.57594,17.7604,7.7654Q17.7957,7.95486,17.8241,8.14642Q17.8524,8.33798,17.8737,8.53118Q17.8951,8.72438,17.9093,8.91875Q17.9236,9.11313,17.9307,9.3082Q17.9378,9.50328,17.9378,9.69859Z" fill-rule="evenodd" fill="currentColor" fill-opacity="1" />
			</g>
		</g>
	</g>
</svg>
