<svg xmlns="http://www.w3.org/2000/svg" xmlns:xlink="http://www.w3.org/1999/xlink" version="1.1" width="24" height="24" viewBox="0 0 24 24">
	<defs>
		<clipPath id="master_svg0_88_65228">
			<rect x="0" y="0" width="24" height="24" rx="0" />
		</clipPath>
	</defs>
	<g style="mix-blend-mode:passthrough" clip-path="url(#master_svg0_88_65228)">
		<g style="mix-blend-mode:passthrough">
			<g style="mix-blend-mode:passthrough">
				<g style="mix-blend-mode:passthrough">
					<path d="M15.2611,23.071296875C15.2611,23.071296875,8.53266,23.071296875,8.53266,23.071296875C4.9248899999999995,23.071296875,2,23.080296875000002,2,19.471896875C2,16.716776875,3.70664,14.360676875,6.12024,13.400356875C5.94097,13.701590875,5.82209,14.018056875,5.77915,14.322186875C5.59133,14.412846875,5.44286,14.580826875,5.36862,14.789346875C5.14027,14.896946875,4.92132,15.050726875,4.71776,15.247616875C4.36844,15.583926875,4.0509900000000005,16.051606875,3.80004,16.600336875C3.7477,16.713576875,3.74291,16.841876875,3.7855,16.959556875C3.5318300000000002,17.606826875,3.39259,18.284566875,3.39259,18.873856875C3.39259,19.519066875,3.4237200000000003,19.896426875,3.59323,20.169086874999998C3.7719899999999997,20.456126875,4.06262,20.542336875,4.28158,20.578426874999998C4.35616,20.645826875,4.45246,20.683626875,4.55253,20.683626875C4.55253,20.683626875,5.16165,20.683626875,5.16165,20.683626875C5.38642,20.683626875,5.56928,20.500766875,5.56928,20.275826875C5.56928,20.275826875,5.569789999999999,20.253416875,5.569789999999999,20.253416875C5.569789999999999,20.253416875,5.568770000000001,20.251026875,5.568770000000001,20.251026875C5.55628,20.037376875,5.3787199999999995,19.867516875,5.16217,19.867516875C5.16217,19.867516875,4.55304,19.867516875,4.55304,19.867516875C4.48889,19.867516875,4.426629999999999,19.882396875,4.3701799999999995,19.910626875C4.20751,19.880346875,4.17928,19.835526875,4.16525,19.812946875C4.07374,19.666036875,4.06621,19.251206875,4.06621,18.873516875C4.06621,18.379866875,4.1827000000000005,17.805986875000002,4.39481,17.250556875C4.51643,17.207616875,4.6170100000000005,17.116956875,4.67124,16.998756874999998C5.06829,16.132366875,5.6349800000000005,15.572856875,6.11497,15.572856875C6.58471,15.572856875,7.12506,16.091506875,7.52397,16.926416875C7.57272,17.028706875,7.65756,17.109956875,7.76156,17.156146875C7.99318,17.730416875,8.125910000000001,18.353546875,8.125910000000001,18.873916875C8.125910000000001,19.355606875,8.11069,19.680266875,8.0344,19.811466875C8.02106,19.834386875,7.99711,19.875616875,7.85291,19.906056875C7.79954,19.881086875,7.74139,19.868086875,7.68254,19.868086875C7.68254,19.868086875,7.07394,19.868086875,7.07394,19.868086875C6.85276,19.868086875,6.67145,20.046506875,6.66631,20.266646875C6.66631,20.266646875,6.66631,20.275886875,6.66631,20.275886875C6.66631,20.500826875,6.84934,20.683686875,7.07394,20.683686875C7.07394,20.683686875,7.68254,20.683686875,7.68254,20.683686875C7.78859,20.683686875,7.88969,20.641946875000002,7.96547,20.567706875C8.757439999999999,20.410676875,8.798670000000001,19.818806875,8.798670000000001,18.873896875C8.798670000000001,18.276906875,8.65019,17.567186875,8.39104,16.918386875C8.44988,16.789586875,8.44988,16.642306875,8.38813,16.512986875C7.96958,15.637706875,7.42632,15.035226875,6.81426,14.766666875C6.74378,14.583986875,6.61771,14.435336875,6.45692,14.344846875C6.54363,13.927129875,6.85992,13.413082875,7.30996,13.054036975C7.51403,13.015378775,7.72169,12.985955175,7.93209,12.966796875C7.9581,14.157856875,9.7229,15.119186875,11.89736,15.119186875C14.0713,15.119186875,15.8368,14.157856875,15.8626,12.966796875C16.162300000000002,12.993995075,16.4559,13.042406475,16.7425,13.108945875C17.1101,13.461502875,17.3414,13.956859875,17.4304,14.409826875C17.016199999999998,14.494646875,16.6418,14.755686875,16.427,15.157326874999999C16.043799999999997,15.873386875,16.3134,16.765266875000002,17.029899999999998,17.148256875C17.746499999999997,17.531426875,18.6375,17.261636875,19.0209,16.545266875C19.4043,15.828726875000001,19.1344,14.937676875,18.4179,14.554336875C18.3216,14.502846875,18.222,14.464186875,18.1209,14.435966875C18.0802,14.134076875,17.9899,13.823758875,17.8507,13.525606875C17.8401,13.502685875,17.8274,13.482158875,17.8163,13.460092875C20.1546,14.455006875,21.7944,16.771086875,21.7944,19.472076875C21.7944,19.472076875,21.7941,19.471896875,21.7941,19.471896875C21.7941,23.080296875000002,18.8692,23.071296875,15.2611,23.071296875ZM17.3661,19.270426875C17.3661,19.270426875,16.433999999999997,19.270426875,16.433999999999997,19.270426875C16.433999999999997,19.270426875,16.433999999999997,18.338516875,16.433999999999997,18.338516875C16.433999999999997,18.243586875,16.365099999999998,18.166776875,16.2807,18.166776875C16.2807,18.166776875,15.3611,18.166776875,15.3611,18.166776875C15.2763,18.166776875,15.2079,18.243586875,15.2079,18.338516875C15.2079,18.338516875,15.2079,19.270426875,15.2079,19.270426875C15.2079,19.270426875,14.2756,19.270426875,14.2756,19.270426875C14.1812,19.270426875,14.1042,19.338846875,14.1042,19.423686875C14.1042,19.423686875,14.1042,20.343286875,14.1042,20.343286875C14.1042,20.428136875,14.1814,20.496556875,14.2758,20.496556875C14.2758,20.496556875,15.2079,20.496556875,15.2079,20.496556875C15.2079,20.496556875,15.2079,21.428456875000002,15.2079,21.428456875000002C15.2079,21.523396875,15.2763,21.600196875,15.3611,21.600196875C15.3611,21.600196875,16.2807,21.600196875,16.2807,21.600196875C16.365099999999998,21.600196875,16.433999999999997,21.523396875,16.433999999999997,21.428456875000002C16.433999999999997,21.428456875000002,16.433999999999997,20.496556875,16.433999999999997,20.496556875C16.433999999999997,20.496556875,17.3661,20.496556875,17.3661,20.496556875C17.4607,20.496556875,17.5375,20.428136875,17.5375,20.343286875C17.5375,20.343286875,17.5375,19.423686875,17.5375,19.423686875C17.5375,19.338846875,17.461,19.270426875,17.3661,19.270426875Z" fill="currentColor" fill-opacity="1" />
				</g>
				<g style="mix-blend-mode:passthrough">
					<path d="M16.98828125,15.84900425C16.98828125,16.25527125,17.31757225,16.58473125,17.72382825,16.58473125C18.13027125,16.58473125,18.45955125,16.25526125,18.45955125,15.84900425C18.45955125,15.44273425,18.13026125,15.11328125,17.72382825,15.11328125C17.31756325,15.11328125,16.98828125,15.44273425,16.98828125,15.84900425Z" fill="currentColor" fill-opacity="1" />
				</g>
				<g style="mix-blend-mode:passthrough">
					<path d="M16.841150624999997,5.464C16.878440625,5.72468,16.898110625,5.99152,16.898110625,6.26247C16.898110625,6.3728,16.893660625000003,6.48193,16.887510625,6.59056C16.878440625,6.74946,16.863730625000002,6.90615,16.841150624999997,7.06095C16.837210625,7.10799,16.833620625000002,7.15486,16.829180625,7.20173C16.513880625,10.76855,14.426790624999999,13.5246,11.899250625,13.5246C9.371140624999999,13.5246,7.284582625,10.76859,6.969326325,7.20173C6.964878525,7.15486,6.960772825,7.10799,6.957351725,7.06095C6.934943725,6.90615,6.920062125,6.74947,6.910482925,6.59056C6.904837925,6.48193,6.900390625,6.3728,6.900390625,6.26247C6.900390625,5.99119,6.919549625,5.72468,6.957353025,5.464C7.322565625,2.93637,9.396040625,1,11.899100624999999,1C11.899100624999999,1,11.898960625,1,11.898960625,1C14.402240625000001,1,16.475600625,2.9364600000000003,16.841150624999997,5.464Z" fill="currentColor" fill-opacity="1" />
				</g>
			</g>
			<g style="mix-blend-mode:passthrough"></g>
		</g>
	</g>
</svg>
