<svg xmlns="http://www.w3.org/2000/svg" xmlns:xlink="http://www.w3.org/1999/xlink" fill="currentColor" version="1.1" width="24" height="24" viewBox="0 0 24 24">
	<defs>
		<clipPath id="master_svg0_88_65234">
			<rect x="0" y="0" width="24" height="24" rx="0" />
		</clipPath>
	</defs>
	<g style="mix-blend-mode:passthrough">
		<g style="mix-blend-mode:passthrough" clip-path="url(#master_svg0_88_65234)">
			<g>
				<path d="M18.9231,1L5.076919999999999,1C3.38462,1,2,2.3200000000000003,2,3.93333L2,20.0667C2,21.68,3.38462,23,5.076919999999999,23L18.9231,23C20.6154,23,22,21.68,22,20.0667L22,3.93333C22,2.3200000000000003,20.6154,1,18.9231,1ZM14.8846,5.95L17.769199999999998,5.95C18.1923,5.95,18.5385,6.28,18.5385,6.68333C18.5385,7.08667,18.1923,7.41667,17.769199999999998,7.41667L14.8846,7.41667C14.4615,7.41667,14.1154,7.08667,14.1154,6.68333C14.1154,6.28,14.4615,5.95,14.8846,5.95ZM13.4615,9.32333L17.769199999999998,9.32333C18.1923,9.32333,18.5385,9.65333,18.5385,10.05667C18.5385,10.46,18.1923,10.79,17.769199999999998,10.79L13.4231,10.79C13,10.79,12.6538,10.46,12.6538,10.05667C12.6538,9.65333,13,9.32333,13.4615,9.32333ZM5.461539999999999,6.61C5.461539999999999,5.84,6.11538,5.18,6.96154,5.18L9.84615,5.18C10.65384,5.18,11.34615,5.80333,11.34615,6.61L11.34615,9.36C11.34615,10.13,10.69231,10.79,9.84615,10.79L6.96154,10.79C6.15385,10.79,5.461539999999999,10.16667,5.461539999999999,9.36L5.461539999999999,6.61ZM18.5769,17.8667L15.6154,17.8667C15.5,17.8667,15.3462,17.83,15.2308,17.7567L15.1538,17.72L14.3846,17.17L12.6538,19.92C12.5,20.14,12.2692,20.2867,12,20.2867C11.73077,20.2867,11.5,20.1767,11.34615,19.9567L11.30769,19.8833L9.26923,15.85L8.307690000000001,17.5367C8.192309999999999,17.7567,7.96154,17.9033,7.73077,17.9033L5.5,17.9033C5.076919999999999,17.9033,4.73077,17.5733,4.73077,17.17C4.73077,16.8033,5.038460000000001,16.473300000000002,5.423080000000001,16.436700000000002L7.19231,16.436700000000002L8.65385,13.87C8.76923,13.65,9.03846,13.5033,9.307690000000001,13.5033C9.576920000000001,13.5033,9.84615,13.6133,10,13.8333L10.03846,13.9067L12.0769,18.0133L13.5,15.74C13.7308,15.41,14.1923,15.3,14.5385,15.4833L14.6154,15.52L15.8846,16.4L18.5,16.4C18.8846,16.4,19.2308,16.6933,19.2692,17.06L19.2692,17.1333C19.2692,17.5,18.9615,17.7933,18.5769,17.8667Z" fill="currentColor" fill-opacity="1" />
			</g>
		</g>
	</g>
</svg>
