<svg xmlns="http://www.w3.org/2000/svg" xmlns:xlink="http://www.w3.org/1999/xlink" fill="currentColor" version="1.1" width="24" height="24" viewBox="0 0 24 24">
	<defs>
		<clipPath id="master_svg0_88_65236">
			<rect x="0" y="0" width="24" height="24" rx="0" />
		</clipPath>
	</defs>
	<g style="mix-blend-mode:passthrough">
		<g style="mix-blend-mode:passthrough" clip-path="url(#master_svg0_88_65236)">
			<g style="mix-blend-mode:passthrough">
				<path d="M2.375458,14.460400114440917C2.624559,15.906600114440918,3.64656,17.02390011444092,5,17.47400011444092C5,17.47400011444092,5,20.877600114440916,5,20.877600114440916C5,21.651900114440917,5.84211,22.13240011444092,6.50873,21.738500114440917C6.50873,21.738500114440917,12.6241,18.12490011444092,12.6241,18.12490011444092C14.8384,18.08860011444092,16.8238,17.86610011444092,18.3052,17.640700114440918C19.9953,17.38350011444092,21.3344,16.14510011444092,21.6245,14.460400114440917C21.8268,13.286300114440918,22,11.794750114440918,22,10.130000114440918C22,8.465250114440918,21.8268,6.973720114440918,21.6245,5.799570114440918C21.3344,4.114880114440918,19.9953,2.876476114440918,18.3052,2.619325114440918C16.6859,2.372933114440918,14.4644,2.130000114440918,12,2.130000114440918C9.53559,2.130000114440918,7.31411,2.372933114440918,5.69477,2.619325114440918C4.00472,2.876476114440918,2.665645,4.114880114440918,2.375458,5.799570114440918C2.173212,6.973720114440918,2,8.465250114440918,2,10.130000114440918C2,11.794750114440918,2.173212,13.286300114440918,2.375458,14.460400114440917ZM17,9.130000114440918C17.552300000000002,9.130000114440918,18,8.682280114440918,18,8.130000114440918C18,7.577720114440918,17.552300000000002,7.130000114440918,17,7.130000114440918C17,7.130000114440918,7,7.130000114440918,7,7.130000114440918C6.44772,7.130000114440918,6,7.577720114440918,6,8.130000114440918C6,8.682280114440918,6.44771,9.130000114440918,7,9.130000114440918C7,9.130000114440918,17,9.130000114440918,17,9.130000114440918ZM11,13.130000114440918C11.55228,13.130000114440918,12,12.682300114440919,12,12.130000114440918C12,11.577720114440918,11.55228,11.130000114440918,11,11.130000114440918C11,11.130000114440918,7,11.130000114440918,7,11.130000114440918C6.44772,11.130000114440918,6,11.577720114440918,6,12.130000114440918C6,12.682300114440919,6.44772,13.130000114440918,7,13.130000114440918C7,13.130000114440918,11,13.130000114440918,11,13.130000114440918Z" fill-rule="evenodd" fill="currentColor" fill-opacity="1" />
			</g>
		</g>
	</g>
</svg>
