<svg xmlns="http://www.w3.org/2000/svg" xmlns:xlink="http://www.w3.org/1999/xlink" fill="currentColor" version="1.1" width="24" height="24" viewBox="0 0 24 24">
	<defs>
		<clipPath id="master_svg0_88_65243">
			<rect x="0" y="0" width="24" height="24" rx="0" />
		</clipPath>
	</defs>
	<g style="mix-blend-mode:passthrough" clip-path="url(#master_svg0_88_65243)">
		<g style="mix-blend-mode:passthrough">
			<path d="M21.53663125,14.63C21.72663125,14.785,21.78163125,15.055,21.65663125,15.27C21.65663125,15.27,19.65663125,18.735,19.65663125,18.735C19.53163125,18.95,19.27163125,19.035,19.04663125,18.95C19.04663125,18.95,16.556631250000002,17.945,16.556631250000002,17.945C16.041631250000002,18.345,15.47663125,18.675,14.86663125,18.93C14.86663125,18.93,14.49163125,21.58,14.49163125,21.58C14.45163125,21.815,14.24663125,22,13.99663125,22C13.99663125,22,9.99665125,22,9.99665125,22C9.74665125,22,9.541651250000001,21.815,9.50165125,21.58C9.50165125,21.58,9.12665125,18.93,9.12665125,18.93C8.516651249999999,18.675,7.95165125,18.34,7.43665125,17.945C7.43665125,17.945,4.94665125,18.95,4.94665125,18.95C4.72165125,19.04,4.46165125,18.95,4.33665125,18.735C4.33665125,18.735,2.33665365,15.27,2.33665365,15.27C2.21165365,15.05,2.26665381,14.78,2.45665425,14.63C2.45665425,14.63,4.56665125,12.975,4.56665125,12.975C4.5266512500000005,12.655,4.49665125,12.33,4.49665125,12C4.49665125,11.67,4.5266512500000005,11.345,4.56665125,11.025C4.56665125,11.025,2.45665425,9.370000000000001,2.45665425,9.370000000000001C2.26665381,9.215,2.21165365,8.945,2.33665365,8.73C2.33665365,8.73,4.33665125,5.265000000000001,4.33665125,5.265000000000001C4.46165125,5.05,4.72165125,4.965,4.94665125,5.05C4.94665125,5.05,7.43665125,6.055,7.43665125,6.055C7.95165125,5.654999999999999,8.516651249999999,5.325,9.12665125,5.07C9.12665125,5.07,9.50165125,2.42,9.50165125,2.42C9.541651250000001,2.185,9.74665125,2,9.99665125,2C9.99665125,2,13.99663125,2,13.99663125,2C14.24663125,2,14.45163125,2.185,14.49663125,2.42C14.49663125,2.42,14.87163125,5.07,14.87163125,5.07C15.48163125,5.325,16.04663125,5.66,16.561631249999998,6.055C16.561631249999998,6.055,19.05163125,5.05,19.05163125,5.05C19.27663125,4.96,19.53663125,5.05,19.66163125,5.265000000000001C19.66163125,5.265000000000001,21.66163125,8.73,21.66163125,8.73C21.78663125,8.95,21.73163125,9.219999999999999,21.54163125,9.370000000000001C21.54163125,9.370000000000001,19.42663125,11.025,19.42663125,11.025C19.46663125,11.345,19.49663125,11.67,19.49663125,12C19.49663125,12.33,19.46663125,12.655,19.42663125,12.975C19.42663125,12.975,19.42663125,12.975,19.42663125,12.975C19.42663125,12.975,21.53663125,14.63,21.53663125,14.63ZM11.99665125,8.5C10.06165125,8.5,8.49665125,10.065,8.49665125,12C8.49665125,13.935,10.06165125,15.5,11.99665125,15.5C13.93163125,15.5,15.49663125,13.935,15.49663125,12C15.49663125,10.065,13.93163125,8.5,11.99665125,8.5Z" fill="currentColor" fill-opacity="1" />
		</g>
	</g>
</svg>
