<svg xmlns="http://www.w3.org/2000/svg" xmlns:xlink="http://www.w3.org/1999/xlink" fill="currentColor" version="1.1" width="20" height="20" viewBox="0 0 20 20">
	<g style="mix-blend-mode:passthrough">
		<g>
			<path d="M13.139922142028809,8.817092628479005C13.139922142028809,10.284792628479003,14.345962142028808,11.474592628479005,15.83369214202881,11.474592628479005C17.32142214202881,11.474592628479005,18.52747214202881,10.284792628479003,18.52747214202881,8.817092628479005C18.52747214202881,7.349392628479004,17.32142214202881,6.159592628479004,15.83369214202881,6.159592628479004C14.345962142028808,6.159592628479004,13.139922142028809,7.349392628479004,13.139922142028809,8.817092628479005Z" fill="currentColor" fill-opacity="1" />
		</g>
		<g style="mix-blend-mode:passthrough">
			<g>
				<path d="M20.000001991271972,10.885986328125C19.705111991271973,11.450439328125,19.297781991271975,11.950366328125,18.802391991271975,12.355816328125C19.225871991271973,12.536156328125,19.620411991271972,12.765026328125,20.000001991271972,13.015796328124999L20.000001991271972,10.885986328125ZM20.000001991271972,17.894936328125L20.000001991271972,15.583836328124999C18.983741991271973,14.438046328125,17.494811991271973,13.709546328125,15.833691991271973,13.709546328125C12.778661991271973,13.709546328125,10.293251991271973,16.161496328125,10.293251991271973,19.175866328125C10.293251991271973,19.456596328125002,10.321708991271972,19.730196328125,10.363188791271973,19.999516328125L17.866681991271975,19.999516328125C19.045001991271974,19.999516328125,20.000001991271972,19.057376328125002,20.000001991271972,17.894936328125Z" fill="currentColor" fill-opacity="1" />
			</g>
			<g>
				<path d="M8.30801,19.1763C8.30801,16.122,10.1881,13.4945,12.865,12.3558C11.829,11.5084,11.1542,10.246,11.1542,8.81757C11.1542,6.27189,13.2533,4.20156,15.8332,4.20156C17.6603,4.20156,19.2292,5.24981,19.9995,6.75961L19.9995,2.10459C19.9995,0.942139,19.0445,0,17.8662,0L2.13331,0C0.954999,0,0,0.942139,0,2.10459L0,17.8954C0,19.0579,0.954999,20,2.13331,20L8.35673,20C8.32634,19.7288,8.30801,19.4547,8.30801,19.1763ZM3.77804,3.20185L8.70352,3.20185C9.25192,3.20185,9.69614,3.63961,9.69614,4.1811C9.69614,4.72259,9.25192,5.16035,8.70352,5.16035L3.77804,5.16035C3.22963,5.16035,2.78541,4.72259,2.78541,4.1811C2.78541,3.63961,3.23012,3.20185,3.77804,3.20185ZM3.77804,6.80339L7.71041,6.80339C8.25882,6.80339,8.70303,7.24115,8.70303,7.78264C8.70303,8.32413,8.25882,8.7619,7.71041,8.7619L3.77804,8.7619C3.22963,8.7619,2.78541,8.32413,2.78541,7.78264C2.78541,7.24115,3.23012,6.80339,3.77804,6.80339ZM3.77804,12.3634C3.22963,12.3634,2.78541,11.9257,2.78541,11.3842C2.78541,10.8427,3.22963,10.4049,3.77804,10.4049L7.71041,10.4049C8.25882,10.4049,8.70303,10.8427,8.70303,11.3842C8.70303,11.9257,8.25882,12.3634,7.71041,12.3634L3.77804,12.3634Z" fill="currentColor" fill-opacity="1" />
			</g>
		</g>
	</g>
</svg>
