<svg xmlns="http://www.w3.org/2000/svg" xmlns:xlink="http://www.w3.org/1999/xlink" fill="currentColor" version="1.1" width="23" height="20" viewBox="0 0 23 20">
	<g style="mix-blend-mode:passthrough">
		<g>
			<path d="M21.6700751953125,10.684724375C21.7731751953125,10.559174375,21.8725751953125,10.432224375,21.9635751953125,10.301534375C21.8707751953125,10.431524375,21.7728751953125,10.559174375,21.6700751953125,10.684724375ZM14.4474751953125,10.684964375L12.4794751953125,11.895934375L10.5988651953125,10.838524375L8.688605195312501,13.446224375L6.2362351953125,8.021484375L5.0061951953125,10.901994375000001L1.5051670653125,10.901994375000001C1.5041364453125,10.900834375,1.5031058153125,10.899434375,1.5020751953125,10.898264375C1.6479081953125,11.060924374999999,1.8040471953125001,11.218454375,1.9712661953125,11.369914375L10.1567351953125,18.783884375C10.9187651953125,19.474184375,12.0799751953125,19.474184375,12.8419751953125,18.783884375L21.0274751953125,11.369914375C21.2655751953125,11.154274375,21.4744751953125,10.922764375,21.6697751953125,10.684964375L14.4474751953125,10.684964375Z" fill="currentColor" fill-opacity="1" />
		</g>
		<g>
			<path d="M0.871472,9.09825L4.36142,9.09825L6.21087,4.7671L8.88585,10.6842L10.3192,8.72742L12.4559,9.92859L14.1583,8.88122L22.2389,8.88122L22.2389,8.92252C23.5629,6.6224,23.1597,3.71879,21.0274,1.7874C18.3962,-0.595799,14.1304,-0.595799,11.4993,1.7874C8.86807,-0.595799,4.60233,-0.595799,1.97115,1.7874C-0.353423,3.89288,-0.620612,7.15263,1.16236,9.52742C1.05879,9.38693,0.962166,9.24364,0.871472,9.09825ZM22.0755,9.17666C22.1301,9.09195,22.1889,9.0091,22.2389,8.92252C22.1889,9.0091,22.1309,9.09242,22.0755,9.17666Z" fill="currentColor" fill-opacity="1" />
		</g>
	</g>
</svg>
